<svg width="25" height="25" viewBox="0 0 25 25" fill="none" xmlns="http://www.w3.org/2000/svg">
<path fill-rule="evenodd" clip-rule="evenodd" d="M12.0288 13.229C7.95397 13.229 4.58308 16.2879 4.09071 20.231C4.02227 20.779 4.47655 21.229 5.02884 21.229C5.58112 21.229 6.0201 20.7779 6.11147 20.2332C6.58722 17.3972 9.05977 15.229 12.0288 15.229C14.9979 15.229 17.4705 17.3972 17.9462 20.2332C18.0376 20.7779 18.4766 21.229 19.0288 21.229C19.5811 21.229 20.0354 20.779 19.967 20.231C19.4746 16.2879 16.1037 13.229 12.0288 13.229Z" fill="#34AADD"/>
<path d="M12.0288 11.229C14.2348 11.229 16.0288 9.435 16.0288 7.229C16.0288 5.023 14.2348 3.229 12.0288 3.229C9.82281 3.229 8.02881 5.023 8.02881 7.229C8.02881 9.435 9.82281 11.229 12.0288 11.229" stroke="#34AADD" stroke-width="2"/>
</svg>
